<svg width="16" height="16" viewBox="0 0 16 16" fill="none" xmlns="http://www.w3.org/2000/svg">
<mask id="mask0_13_208" style="mask-type:alpha" maskUnits="userSpaceOnUse" x="0" y="0" width="16" height="16">
<circle cx="8" cy="8" r="8" fill="#F578A5"/>
</mask>
<g mask="url(#mask0_13_208)">
<circle cx="8" cy="8" r="8" fill="#56B280"/>
<path d="M4.32 15.884V16.059H4.495H11.9153H12.0903V15.884V12.7705C12.0903 12.4845 11.8636 12.25 11.5778 12.2402L4.86863 12.0115C4.5687 12.0013 4.32 12.2417 4.32 12.5418V15.884Z" fill="white" stroke="white" stroke-width="0.35"/>
<g clip-path="url(#clip0_13_208)">
<path d="M5.86137 5.61748C7.49172 3.35064 6.79043 1.50551 6.7924 1.50332C6.75783 1.41091 6.80473 1.308 6.89713 1.27344C6.94374 1.256 6.99552 1.25881 7.03997 1.28117C9.98245 2.68917 11.2487 4.50678 11.4912 6.15011C11.5875 6.78856 11.5273 7.4409 11.3156 8.05092C11.1216 8.61379 10.7984 9.1234 10.372 9.53889C9.5518 10.331 8.40553 10.6962 7.27423 10.326C6.98485 10.2316 6.71178 10.0931 6.46465 9.91531C5.96893 9.55953 5.59291 9.06161 5.38634 8.48744C5.16716 7.87337 5.16019 7.20355 5.36655 6.58505C5.48052 6.23887 5.64745 5.91249 5.86137 5.61748Z" fill="white"/>
<path d="M6.82835 1.56185C6.75669 1.49406 6.75353 1.38101 6.82132 1.30935C6.88911 1.23769 7.00217 1.23453 7.07382 1.30232C7.0791 1.30731 7.08404 1.31261 7.08867 1.3182C7.09524 1.32411 8.5159 2.81326 8.71886 5.69147L8.72097 5.71846C8.76479 6.39118 8.74315 7.06655 8.65639 7.73508L9.62782 6.99062C9.70919 6.93483 9.82037 6.95556 9.87614 7.03692C9.92663 7.11058 9.91499 7.2102 9.84886 7.27021L8.57932 8.24016C8.2951 9.91109 7.29319 12.275 8.61953 13.7545C8.6834 13.8296 8.67425 13.9424 8.59907 14.0062C8.52752 14.067 8.4211 14.0621 8.35554 13.9948C6.76504 12.222 7.92237 10.0258 8.23911 8.12665L8.24327 8.10002C8.37206 7.34426 8.41621 6.57649 8.37487 5.81096L7.23303 4.97434C7.15158 4.91867 7.1307 4.80751 7.18637 4.72607C7.24204 4.64462 7.35319 4.62373 7.43464 4.6794C7.438 4.68171 7.44131 4.68412 7.4445 4.68667L8.32924 5.33802C8.05326 2.84305 6.83353 1.56783 6.82835 1.56185Z" fill="#56B280"/>
</g>
</g>
<defs>
<clipPath id="clip0_13_208">
<rect width="9.81867" height="9.81867" fill="white" transform="translate(0.943115 7.83771) rotate(-48)"/>
</clipPath>
</defs>
</svg>
